<mxfile host="app.diagrams.net" modified="2024-07-22T16:12:43.984Z" agent="Mozilla/5.0 (Windows NT 10.0; Win64; x64; rv:128.0) Gecko/20100101 Firefox/128.0" etag="7RV5VAaGx4A_dC-8ju7d" version="24.7.1" type="device">
  <diagram name="Page-1" id="AY__ZtW77cSAb1CSKdHF">
    <mxGraphModel dx="3865" dy="2707" grid="1" gridSize="10" guides="1" tooltips="1" connect="1" arrows="1" fold="1" page="1" pageScale="1" pageWidth="850" pageHeight="1100" math="0" shadow="0">
      <root>
        <mxCell id="0" />
        <mxCell id="1" parent="0" />
        <mxCell id="TcDIFDmibQCKH7xWG7xC-8" value="" style="endArrow=none;html=1;strokeColor=#00CC00;strokeWidth=5;exitX=1;exitY=0.5;exitDx=0;exitDy=0;entryX=0.5;entryY=0;entryDx=0;entryDy=0;" edge="1" parent="1" source="TcDIFDmibQCKH7xWG7xC-5" target="u716lGbHVDkh0mk6CN_7-56">
          <mxGeometry width="50" height="50" relative="1" as="geometry">
            <mxPoint x="463" y="-180" as="sourcePoint" />
            <mxPoint x="920" y="-170" as="targetPoint" />
            <Array as="points">
              <mxPoint x="880" y="-60" />
            </Array>
          </mxGeometry>
        </mxCell>
        <mxCell id="u716lGbHVDkh0mk6CN_7-10" value="" style="rounded=1;whiteSpace=wrap;html=1;fillColor=#999999;fontColor=#000000;" parent="1" vertex="1">
          <mxGeometry x="1698.79" y="889.12" width="43.21" height="80.88" as="geometry" />
        </mxCell>
        <mxCell id="pgvzjLH3voalXGMV9zmU-2" value="" style="rounded=1;whiteSpace=wrap;html=1;fillColor=#666666;arcSize=8;" parent="1" vertex="1">
          <mxGeometry x="190" y="20" width="630" height="850" as="geometry" />
        </mxCell>
        <mxCell id="pgvzjLH3voalXGMV9zmU-93" value="" style="shape=card;whiteSpace=wrap;html=1;rotation=90;size=50;strokeColor=none;fillColor=#FFFFFF;" parent="1" vertex="1">
          <mxGeometry x="115" y="745.81" width="196.81" height="53.19" as="geometry" />
        </mxCell>
        <mxCell id="pgvzjLH3voalXGMV9zmU-3" value="" style="rounded=0;whiteSpace=wrap;html=1;fillColor=#B3B3B3;fontColor=#333333;strokeColor=#E6E6E6;" parent="1" vertex="1">
          <mxGeometry x="390" y="690" width="220" height="200" as="geometry" />
        </mxCell>
        <mxCell id="pgvzjLH3voalXGMV9zmU-4" value="" style="whiteSpace=wrap;html=1;aspect=fixed;fillColor=#1A1A1A;" parent="1" vertex="1">
          <mxGeometry x="450" y="330" width="180" height="180" as="geometry" />
        </mxCell>
        <mxCell id="pgvzjLH3voalXGMV9zmU-5" value="" style="ellipse;whiteSpace=wrap;html=1;aspect=fixed;fillColor=#E6E6E6;" parent="1" vertex="1">
          <mxGeometry x="460" y="341" width="15" height="15" as="geometry" />
        </mxCell>
        <mxCell id="pgvzjLH3voalXGMV9zmU-7" value="" style="rounded=0;whiteSpace=wrap;html=1;fillColor=#1A1A1A;" parent="1" vertex="1">
          <mxGeometry x="338" y="570" width="70" height="40" as="geometry" />
        </mxCell>
        <mxCell id="pgvzjLH3voalXGMV9zmU-8" value="&lt;h1&gt;EN&lt;/h1&gt;" style="rounded=1;whiteSpace=wrap;html=1;fillColor=#FF8000;fontColor=#FFFFFF;" parent="1" vertex="1">
          <mxGeometry x="-190" y="190" width="120" height="40" as="geometry" />
        </mxCell>
        <mxCell id="pgvzjLH3voalXGMV9zmU-9" value="&lt;h1&gt;1&lt;/h1&gt;" style="rounded=1;whiteSpace=wrap;html=1;fillColor=#3399FF;fontColor=#FFFFFF;" parent="1" vertex="1">
          <mxGeometry x="-52" y="190" width="120" height="40" as="geometry" />
        </mxCell>
        <mxCell id="pgvzjLH3voalXGMV9zmU-10" value="&lt;h1&gt;3&lt;/h1&gt;" style="rounded=1;whiteSpace=wrap;html=1;fillColor=#00CC00;fontColor=#FFFFFF;" parent="1" vertex="1">
          <mxGeometry x="-190" y="249" width="120" height="40" as="geometry" />
        </mxCell>
        <mxCell id="pgvzjLH3voalXGMV9zmU-11" value="&lt;h1&gt;5&lt;/h1&gt;" style="rounded=1;whiteSpace=wrap;html=1;fillColor=#00CC00;fontColor=#FFFFFF;" parent="1" vertex="1">
          <mxGeometry x="-190" y="310" width="120" height="40" as="geometry" />
        </mxCell>
        <mxCell id="pgvzjLH3voalXGMV9zmU-12" value="&lt;h1&gt;7&lt;/h1&gt;" style="rounded=1;whiteSpace=wrap;html=1;fillColor=#00CC00;fontColor=#FFFFFF;" parent="1" vertex="1">
          <mxGeometry x="-190" y="372" width="120" height="40" as="geometry" />
        </mxCell>
        <mxCell id="pgvzjLH3voalXGMV9zmU-13" value="&lt;h1&gt;&lt;font color=&quot;#1a1a1a&quot;&gt;S2&lt;/font&gt;&lt;/h1&gt;" style="rounded=0;whiteSpace=wrap;html=1;rotation=-90;fontColor=#E6E6E6;fillColor=#FFFFFF;" parent="1" vertex="1">
          <mxGeometry x="635" y="380.75" width="70" height="39.5" as="geometry" />
        </mxCell>
        <mxCell id="pgvzjLH3voalXGMV9zmU-14" value="&lt;h1&gt;9&lt;/h1&gt;" style="rounded=1;whiteSpace=wrap;html=1;fillColor=#00CC00;fontColor=#FFFFFF;" parent="1" vertex="1">
          <mxGeometry x="-190" y="438" width="120" height="40" as="geometry" />
        </mxCell>
        <mxCell id="pgvzjLH3voalXGMV9zmU-15" value="&lt;h1&gt;11&lt;/h1&gt;" style="rounded=1;whiteSpace=wrap;html=1;fillColor=#00CC00;fontColor=#FFFFFF;" parent="1" vertex="1">
          <mxGeometry x="-190" y="495" width="120" height="40" as="geometry" />
        </mxCell>
        <mxCell id="pgvzjLH3voalXGMV9zmU-16" value="&lt;h1&gt;12&lt;/h1&gt;" style="rounded=1;whiteSpace=wrap;html=1;fillColor=#00CC00;fontColor=#FFFFFF;" parent="1" vertex="1">
          <mxGeometry x="-190" y="554" width="120" height="40" as="geometry" />
        </mxCell>
        <mxCell id="pgvzjLH3voalXGMV9zmU-17" value="&lt;h1&gt;3.3V&lt;/h1&gt;" style="rounded=1;whiteSpace=wrap;html=1;fillColor=#FF3333;fontColor=#FFFFFF;" parent="1" vertex="1">
          <mxGeometry x="-190" y="620" width="120" height="40" as="geometry" />
        </mxCell>
        <mxCell id="pgvzjLH3voalXGMV9zmU-18" value="&lt;h1&gt;2&lt;/h1&gt;" style="rounded=1;whiteSpace=wrap;html=1;fillColor=#3399FF;fontColor=#FFFFFF;" parent="1" vertex="1">
          <mxGeometry x="-52" y="249" width="120" height="40" as="geometry" />
        </mxCell>
        <mxCell id="pgvzjLH3voalXGMV9zmU-21" value="&lt;h1&gt;4&lt;/h1&gt;" style="rounded=1;whiteSpace=wrap;html=1;fillColor=#3399FF;fontColor=#FFFFFF;" parent="1" vertex="1">
          <mxGeometry x="-52" y="310" width="120" height="40" as="geometry" />
        </mxCell>
        <mxCell id="pgvzjLH3voalXGMV9zmU-22" value="&lt;h1&gt;6&lt;/h1&gt;" style="rounded=1;whiteSpace=wrap;html=1;fillColor=#3399FF;fontColor=#FFFFFF;" parent="1" vertex="1">
          <mxGeometry x="-52" y="372" width="120" height="40" as="geometry" />
        </mxCell>
        <mxCell id="pgvzjLH3voalXGMV9zmU-23" value="&lt;h1&gt;8&lt;/h1&gt;" style="rounded=1;whiteSpace=wrap;html=1;fillColor=#3399FF;fontColor=#FFFFFF;" parent="1" vertex="1">
          <mxGeometry x="-52" y="438" width="120" height="40" as="geometry" />
        </mxCell>
        <mxCell id="pgvzjLH3voalXGMV9zmU-24" value="&lt;h1&gt;10&lt;/h1&gt;" style="rounded=1;whiteSpace=wrap;html=1;fillColor=#3399FF;fontColor=#FFFFFF;" parent="1" vertex="1">
          <mxGeometry x="-52" y="495" width="120" height="40" as="geometry" />
        </mxCell>
        <mxCell id="pgvzjLH3voalXGMV9zmU-25" value="&lt;h1&gt;13&lt;/h1&gt;" style="rounded=1;whiteSpace=wrap;html=1;fillColor=#3399FF;fontColor=#FFFFFF;" parent="1" vertex="1">
          <mxGeometry x="-52" y="554" width="120" height="40" as="geometry" />
        </mxCell>
        <mxCell id="pgvzjLH3voalXGMV9zmU-26" value="&lt;h1&gt;14&lt;/h1&gt;" style="rounded=1;whiteSpace=wrap;html=1;fillColor=#3399FF;fontColor=#FFFFFF;" parent="1" vertex="1">
          <mxGeometry x="-52" y="620" width="120" height="40" as="geometry" />
        </mxCell>
        <mxCell id="pgvzjLH3voalXGMV9zmU-27" value="&lt;h1&gt;&lt;font&gt;GND&lt;/font&gt;&lt;/h1&gt;" style="rounded=1;whiteSpace=wrap;html=1;fillColor=#1A1A1A;fontColor=#FFFFFF;" parent="1" vertex="1">
          <mxGeometry x="920" y="552" width="120" height="40" as="geometry" />
        </mxCell>
        <mxCell id="pgvzjLH3voalXGMV9zmU-28" value="&lt;h1&gt;&lt;font&gt;GND&lt;/font&gt;&lt;/h1&gt;" style="rounded=1;whiteSpace=wrap;html=1;fillColor=#1A1A1A;strokeColor=#333333;fontColor=#FFFFFF;" parent="1" vertex="1">
          <mxGeometry x="1060" y="552" width="120" height="40" as="geometry" />
        </mxCell>
        <mxCell id="pgvzjLH3voalXGMV9zmU-29" value="&lt;h1&gt;VBUS&lt;/h1&gt;" style="rounded=1;whiteSpace=wrap;html=1;fillColor=#FF3333;fontColor=#FFFFFF;" parent="1" vertex="1">
          <mxGeometry x="1060" y="618" width="120" height="40" as="geometry" />
        </mxCell>
        <mxCell id="pgvzjLH3voalXGMV9zmU-30" value="&lt;h1&gt;15&lt;/h1&gt;" style="rounded=1;whiteSpace=wrap;html=1;fillColor=#3399FF;fontColor=#FFFFFF;" parent="1" vertex="1">
          <mxGeometry x="920" y="618" width="120" height="40" as="geometry" />
        </mxCell>
        <mxCell id="pgvzjLH3voalXGMV9zmU-31" value="&lt;h1&gt;16&lt;/h1&gt;" style="rounded=1;whiteSpace=wrap;html=1;fillColor=#00CC00;fontColor=#FFFFFF;" parent="1" vertex="1">
          <mxGeometry x="1060" y="493" width="120" height="40" as="geometry" />
        </mxCell>
        <mxCell id="pgvzjLH3voalXGMV9zmU-32" value="&lt;h1&gt;RST&lt;/h1&gt;" style="rounded=0;whiteSpace=wrap;html=1;rotation=-90;fontColor=#E6E6E6;fillColor=#000000;" parent="1" vertex="1">
          <mxGeometry x="300" y="750" width="70" height="39.5" as="geometry" />
        </mxCell>
        <mxCell id="pgvzjLH3voalXGMV9zmU-33" value="&lt;h1&gt;15&lt;/h1&gt;" style="rounded=0;whiteSpace=wrap;html=1;rotation=0;fontColor=#E6E6E6;fillColor=#000000;" parent="1" vertex="1">
          <mxGeometry x="630" y="752.13" width="40" height="35.25" as="geometry" />
        </mxCell>
        <mxCell id="pgvzjLH3voalXGMV9zmU-34" value="&lt;h1&gt;0&lt;/h1&gt;" style="rounded=0;whiteSpace=wrap;html=1;rotation=90;fontColor=#E6E6E6;fillColor=#000000;" parent="1" vertex="1">
          <mxGeometry x="712" y="752.13" width="30" height="35.25" as="geometry" />
        </mxCell>
        <mxCell id="pgvzjLH3voalXGMV9zmU-35" value="&lt;h1 style=&quot;font-size: 32px;&quot;&gt;Mini&lt;/h1&gt;" style="rounded=0;whiteSpace=wrap;html=1;fillColor=none;strokeColor=none;rotation=-90;fontSize=32;fontColor=#FFFFFF;" parent="1" vertex="1">
          <mxGeometry x="635" y="310" width="70" height="36" as="geometry" />
        </mxCell>
        <mxCell id="pgvzjLH3voalXGMV9zmU-36" value="" style="rounded=0;whiteSpace=wrap;html=1;fillColor=#333333;" parent="1" vertex="1">
          <mxGeometry x="820" y="750" width="30" height="60" as="geometry" />
        </mxCell>
        <mxCell id="pgvzjLH3voalXGMV9zmU-37" value="" style="rounded=0;whiteSpace=wrap;html=1;fillColor=#333333;" parent="1" vertex="1">
          <mxGeometry x="200" y="752.13" width="30" height="60" as="geometry" />
        </mxCell>
        <mxCell id="pgvzjLH3voalXGMV9zmU-38" value="" style="rounded=0;whiteSpace=wrap;html=1;fillColor=#FFFFFF;strokeColor=#1A1A1A;" parent="1" vertex="1">
          <mxGeometry x="230" y="720" width="60" height="120" as="geometry" />
        </mxCell>
        <mxCell id="pgvzjLH3voalXGMV9zmU-39" value="" style="rounded=0;whiteSpace=wrap;html=1;fillColor=#FFFFFF;strokeColor=#1A1A1A;" parent="1" vertex="1">
          <mxGeometry x="760" y="720" width="60" height="120" as="geometry" />
        </mxCell>
        <mxCell id="pgvzjLH3voalXGMV9zmU-40" value="&lt;h1&gt;18&lt;/h1&gt;" style="rounded=1;whiteSpace=wrap;html=1;fillColor=#00CC00;fontColor=#FFFFFF;" parent="1" vertex="1">
          <mxGeometry x="1060" y="436" width="120" height="40" as="geometry" />
        </mxCell>
        <mxCell id="pgvzjLH3voalXGMV9zmU-41" value="&lt;h1&gt;33&lt;/h1&gt;" style="rounded=1;whiteSpace=wrap;html=1;fillColor=#00CC00;fontColor=#FFFFFF;" parent="1" vertex="1">
          <mxGeometry x="1060" y="370" width="120" height="40" as="geometry" />
        </mxCell>
        <mxCell id="pgvzjLH3voalXGMV9zmU-42" value="" style="rounded=0;whiteSpace=wrap;html=1;fillColor=#FFFFFF;" parent="1" vertex="1">
          <mxGeometry x="391" y="540" width="15" height="30" as="geometry" />
        </mxCell>
        <mxCell id="pgvzjLH3voalXGMV9zmU-43" value="" style="rounded=0;whiteSpace=wrap;html=1;fillColor=#FFFFFF;" parent="1" vertex="1">
          <mxGeometry x="391" y="610" width="15" height="30" as="geometry" />
        </mxCell>
        <mxCell id="pgvzjLH3voalXGMV9zmU-44" value="" style="rounded=0;whiteSpace=wrap;html=1;fillColor=#FFFFFF;" parent="1" vertex="1">
          <mxGeometry x="365.5" y="610" width="15" height="30" as="geometry" />
        </mxCell>
        <mxCell id="pgvzjLH3voalXGMV9zmU-45" value="" style="rounded=0;whiteSpace=wrap;html=1;fillColor=#FFFFFF;" parent="1" vertex="1">
          <mxGeometry x="340" y="610" width="15" height="30" as="geometry" />
        </mxCell>
        <mxCell id="pgvzjLH3voalXGMV9zmU-46" value="" style="rounded=0;whiteSpace=wrap;html=1;fillColor=#FFFFFF;" parent="1" vertex="1">
          <mxGeometry x="340" y="540" width="15" height="30" as="geometry" />
        </mxCell>
        <mxCell id="pgvzjLH3voalXGMV9zmU-47" value="&lt;h1&gt;35&lt;/h1&gt;" style="rounded=1;whiteSpace=wrap;html=1;fillColor=#00CC00;fontColor=#FFFFFF;" parent="1" vertex="1">
          <mxGeometry x="1060" y="308" width="120" height="40" as="geometry" />
        </mxCell>
        <mxCell id="pgvzjLH3voalXGMV9zmU-48" value="&lt;h1&gt;37&lt;/h1&gt;" style="rounded=1;whiteSpace=wrap;html=1;fillColor=#00CC00;fontColor=#FFFFFF;" parent="1" vertex="1">
          <mxGeometry x="1060" y="247" width="120" height="40" as="geometry" />
        </mxCell>
        <mxCell id="pgvzjLH3voalXGMV9zmU-49" value="&lt;h1&gt;39&lt;/h1&gt;" style="rounded=1;whiteSpace=wrap;html=1;fillColor=#00CC00;fontColor=#FFFFFF;" parent="1" vertex="1">
          <mxGeometry x="1060" y="188" width="120" height="40" as="geometry" />
        </mxCell>
        <mxCell id="pgvzjLH3voalXGMV9zmU-50" value="&lt;h1&gt;17&lt;/h1&gt;" style="rounded=1;whiteSpace=wrap;html=1;fillColor=#3399FF;fontColor=#FFFFFF;" parent="1" vertex="1">
          <mxGeometry x="920" y="493" width="120" height="40" as="geometry" />
        </mxCell>
        <mxCell id="pgvzjLH3voalXGMV9zmU-51" value="&lt;h1&gt;21&lt;/h1&gt;" style="rounded=1;whiteSpace=wrap;html=1;fillColor=#3399FF;fontColor=#FFFFFF;" parent="1" vertex="1">
          <mxGeometry x="920" y="436" width="120" height="40" as="geometry" />
        </mxCell>
        <mxCell id="pgvzjLH3voalXGMV9zmU-52" value="&lt;h1&gt;34&lt;/h1&gt;" style="rounded=1;whiteSpace=wrap;html=1;fillColor=#3399FF;fontColor=#FFFFFF;" parent="1" vertex="1">
          <mxGeometry x="920" y="370" width="120" height="40" as="geometry" />
        </mxCell>
        <mxCell id="pgvzjLH3voalXGMV9zmU-53" value="&lt;h1&gt;36&lt;/h1&gt;" style="rounded=1;whiteSpace=wrap;html=1;fillColor=#3399FF;fontColor=#FFFFFF;" parent="1" vertex="1">
          <mxGeometry x="920" y="308" width="120" height="40" as="geometry" />
        </mxCell>
        <mxCell id="pgvzjLH3voalXGMV9zmU-54" value="&lt;h1&gt;38&lt;/h1&gt;" style="rounded=1;whiteSpace=wrap;html=1;fillColor=#3399FF;fontColor=#FFFFFF;" parent="1" vertex="1">
          <mxGeometry x="920" y="247" width="120" height="40" as="geometry" />
        </mxCell>
        <mxCell id="pgvzjLH3voalXGMV9zmU-55" value="&lt;h1&gt;40&lt;/h1&gt;" style="rounded=1;whiteSpace=wrap;html=1;fillColor=#3399FF;fontColor=#FFFFFF;" parent="1" vertex="1">
          <mxGeometry x="920" y="188" width="120" height="40" as="geometry" />
        </mxCell>
        <mxCell id="pgvzjLH3voalXGMV9zmU-56" value="" style="ellipse;whiteSpace=wrap;html=1;aspect=fixed;fillColor=#FFFFFF;" parent="1" vertex="1">
          <mxGeometry x="225" y="74" width="50" height="50" as="geometry" />
        </mxCell>
        <mxCell id="pgvzjLH3voalXGMV9zmU-57" value="" style="ellipse;whiteSpace=wrap;html=1;aspect=fixed;fillColor=#FFFFFF;" parent="1" vertex="1">
          <mxGeometry x="730" y="74" width="50" height="50" as="geometry" />
        </mxCell>
        <mxCell id="pgvzjLH3voalXGMV9zmU-58" value="" style="ellipse;whiteSpace=wrap;html=1;aspect=fixed;strokeWidth=6;strokeColor=#4D4D4D;fillColor=#FFFFFF;" parent="1" vertex="1">
          <mxGeometry x="202" y="188" width="38" height="38" as="geometry" />
        </mxCell>
        <mxCell id="pgvzjLH3voalXGMV9zmU-59" value="" style="ellipse;whiteSpace=wrap;html=1;aspect=fixed;strokeWidth=6;strokeColor=#4D4D4D;fillColor=#FFFFFF;" parent="1" vertex="1">
          <mxGeometry x="200" y="250" width="38" height="38" as="geometry" />
        </mxCell>
        <mxCell id="pgvzjLH3voalXGMV9zmU-60" value="" style="ellipse;whiteSpace=wrap;html=1;aspect=fixed;strokeWidth=6;strokeColor=#4D4D4D;fillColor=#FF6666;" parent="1" vertex="1">
          <mxGeometry x="200" y="311" width="38" height="38" as="geometry" />
        </mxCell>
        <mxCell id="pgvzjLH3voalXGMV9zmU-61" value="" style="ellipse;whiteSpace=wrap;html=1;aspect=fixed;strokeWidth=6;strokeColor=#4D4D4D;fillColor=#FFFFFF;" parent="1" vertex="1">
          <mxGeometry x="200" y="373" width="38" height="38" as="geometry" />
        </mxCell>
        <mxCell id="pgvzjLH3voalXGMV9zmU-62" value="" style="ellipse;whiteSpace=wrap;html=1;aspect=fixed;strokeWidth=6;strokeColor=#4D4D4D;fillColor=#FFFFFF;" parent="1" vertex="1">
          <mxGeometry x="202" y="439" width="38" height="38" as="geometry" />
        </mxCell>
        <mxCell id="pgvzjLH3voalXGMV9zmU-63" value="" style="ellipse;whiteSpace=wrap;html=1;aspect=fixed;strokeWidth=6;strokeColor=#4D4D4D;fillColor=#FFFFFF;" parent="1" vertex="1">
          <mxGeometry x="202" y="502" width="38" height="38" as="geometry" />
        </mxCell>
        <mxCell id="pgvzjLH3voalXGMV9zmU-64" value="" style="ellipse;whiteSpace=wrap;html=1;aspect=fixed;strokeWidth=6;strokeColor=#4D4D4D;fillColor=#FFFFFF;" parent="1" vertex="1">
          <mxGeometry x="200" y="560" width="38" height="38" as="geometry" />
        </mxCell>
        <mxCell id="pgvzjLH3voalXGMV9zmU-65" value="" style="ellipse;whiteSpace=wrap;html=1;aspect=fixed;strokeWidth=6;strokeColor=#4D4D4D;fillColor=#FFFFFF;" parent="1" vertex="1">
          <mxGeometry x="202" y="622" width="38" height="38" as="geometry" />
        </mxCell>
        <mxCell id="pgvzjLH3voalXGMV9zmU-66" value="" style="ellipse;whiteSpace=wrap;html=1;aspect=fixed;strokeWidth=6;strokeColor=#4D4D4D;fillColor=#66B2FF;" parent="1" vertex="1">
          <mxGeometry x="262" y="622" width="38" height="38" as="geometry" />
        </mxCell>
        <mxCell id="pgvzjLH3voalXGMV9zmU-67" value="" style="ellipse;whiteSpace=wrap;html=1;aspect=fixed;strokeWidth=6;strokeColor=#4D4D4D;fillColor=#66B2FF;" parent="1" vertex="1">
          <mxGeometry x="262" y="560" width="38" height="38" as="geometry" />
        </mxCell>
        <mxCell id="pgvzjLH3voalXGMV9zmU-68" value="" style="ellipse;whiteSpace=wrap;html=1;aspect=fixed;strokeWidth=6;strokeColor=#4D4D4D;fillColor=#66B2FF;" parent="1" vertex="1">
          <mxGeometry x="262" y="502" width="38" height="38" as="geometry" />
        </mxCell>
        <mxCell id="pgvzjLH3voalXGMV9zmU-69" value="" style="ellipse;whiteSpace=wrap;html=1;aspect=fixed;strokeWidth=6;strokeColor=#4D4D4D;fillColor=#66B2FF;" parent="1" vertex="1">
          <mxGeometry x="262" y="438" width="38" height="38" as="geometry" />
        </mxCell>
        <mxCell id="pgvzjLH3voalXGMV9zmU-70" value="" style="ellipse;whiteSpace=wrap;html=1;aspect=fixed;strokeWidth=6;strokeColor=#4D4D4D;fillColor=#FFFFFF;" parent="1" vertex="1">
          <mxGeometry x="262" y="374" width="38" height="38" as="geometry" />
        </mxCell>
        <mxCell id="pgvzjLH3voalXGMV9zmU-71" value="" style="ellipse;whiteSpace=wrap;html=1;aspect=fixed;strokeWidth=6;strokeColor=#4D4D4D;fillColor=#FF6666;" parent="1" vertex="1">
          <mxGeometry x="262" y="312" width="38" height="38" as="geometry" />
        </mxCell>
        <mxCell id="pgvzjLH3voalXGMV9zmU-72" value="" style="ellipse;whiteSpace=wrap;html=1;aspect=fixed;strokeWidth=6;strokeColor=#4D4D4D;fillColor=#00CC00;" parent="1" vertex="1">
          <mxGeometry x="262" y="251" width="38" height="38" as="geometry" />
        </mxCell>
        <mxCell id="pgvzjLH3voalXGMV9zmU-73" value="" style="ellipse;whiteSpace=wrap;html=1;aspect=fixed;strokeWidth=6;strokeColor=#4D4D4D;fillColor=#FFFFFF;" parent="1" vertex="1">
          <mxGeometry x="262" y="188" width="38" height="38" as="geometry" />
        </mxCell>
        <mxCell id="pgvzjLH3voalXGMV9zmU-74" value="" style="ellipse;whiteSpace=wrap;html=1;aspect=fixed;strokeWidth=6;strokeColor=#4D4D4D;fillColor=#FFFFFF;" parent="1" vertex="1">
          <mxGeometry x="704" y="188" width="38" height="38" as="geometry" />
        </mxCell>
        <mxCell id="pgvzjLH3voalXGMV9zmU-75" value="" style="ellipse;whiteSpace=wrap;html=1;aspect=fixed;strokeWidth=6;strokeColor=#4D4D4D;fillColor=#FFFFFF;" parent="1" vertex="1">
          <mxGeometry x="704" y="251" width="38" height="38" as="geometry" />
        </mxCell>
        <mxCell id="pgvzjLH3voalXGMV9zmU-76" value="" style="ellipse;whiteSpace=wrap;html=1;aspect=fixed;strokeWidth=6;strokeColor=#4D4D4D;fillColor=#FFFFFF;" parent="1" vertex="1">
          <mxGeometry x="704" y="312" width="38" height="38" as="geometry" />
        </mxCell>
        <mxCell id="pgvzjLH3voalXGMV9zmU-77" value="" style="ellipse;whiteSpace=wrap;html=1;aspect=fixed;strokeWidth=6;strokeColor=#4D4D4D;fillColor=#FFFFFF;" parent="1" vertex="1">
          <mxGeometry x="700" y="373" width="38" height="38" as="geometry" />
        </mxCell>
        <mxCell id="pgvzjLH3voalXGMV9zmU-78" value="" style="ellipse;whiteSpace=wrap;html=1;aspect=fixed;strokeWidth=6;strokeColor=#4D4D4D;fillColor=#FFFFFF;" parent="1" vertex="1">
          <mxGeometry x="705" y="438" width="38" height="38" as="geometry" />
        </mxCell>
        <mxCell id="pgvzjLH3voalXGMV9zmU-79" value="" style="ellipse;whiteSpace=wrap;html=1;aspect=fixed;strokeWidth=6;strokeColor=#4D4D4D;fillColor=#FFFFFF;" parent="1" vertex="1">
          <mxGeometry x="700" y="502" width="38" height="38" as="geometry" />
        </mxCell>
        <mxCell id="pgvzjLH3voalXGMV9zmU-80" value="" style="ellipse;whiteSpace=wrap;html=1;aspect=fixed;strokeWidth=6;strokeColor=#4D4D4D;fillColor=#FFFFFF;" parent="1" vertex="1">
          <mxGeometry x="700" y="560" width="38" height="38" as="geometry" />
        </mxCell>
        <mxCell id="pgvzjLH3voalXGMV9zmU-81" value="" style="ellipse;whiteSpace=wrap;html=1;aspect=fixed;strokeWidth=6;strokeColor=#4D4D4D;fillColor=#FFFFFF;" parent="1" vertex="1">
          <mxGeometry x="700" y="622" width="38" height="38" as="geometry" />
        </mxCell>
        <mxCell id="pgvzjLH3voalXGMV9zmU-82" value="" style="ellipse;whiteSpace=wrap;html=1;aspect=fixed;strokeWidth=6;strokeColor=#4D4D4D;fillColor=#FF3333;" parent="1" vertex="1">
          <mxGeometry x="760" y="622" width="38" height="38" as="geometry" />
        </mxCell>
        <mxCell id="pgvzjLH3voalXGMV9zmU-83" value="" style="ellipse;whiteSpace=wrap;html=1;aspect=fixed;strokeWidth=6;strokeColor=#4D4D4D;fillColor=#1A1A1A;" parent="1" vertex="1">
          <mxGeometry x="760" y="560" width="38" height="38" as="geometry" />
        </mxCell>
        <mxCell id="pgvzjLH3voalXGMV9zmU-84" value="" style="ellipse;whiteSpace=wrap;html=1;aspect=fixed;strokeWidth=6;strokeColor=#4D4D4D;fillColor=#FFFFFF;" parent="1" vertex="1">
          <mxGeometry x="760" y="502" width="38" height="38" as="geometry" />
        </mxCell>
        <mxCell id="pgvzjLH3voalXGMV9zmU-85" value="" style="ellipse;whiteSpace=wrap;html=1;aspect=fixed;strokeWidth=6;strokeColor=#4D4D4D;fillColor=#FFFFFF;" parent="1" vertex="1">
          <mxGeometry x="760" y="438" width="38" height="38" as="geometry" />
        </mxCell>
        <mxCell id="pgvzjLH3voalXGMV9zmU-86" value="" style="ellipse;whiteSpace=wrap;html=1;aspect=fixed;strokeWidth=6;strokeColor=#4D4D4D;fillColor=#FFFFFF;" parent="1" vertex="1">
          <mxGeometry x="760" y="374" width="38" height="38" as="geometry" />
        </mxCell>
        <mxCell id="pgvzjLH3voalXGMV9zmU-87" value="" style="ellipse;whiteSpace=wrap;html=1;aspect=fixed;strokeWidth=6;strokeColor=#4D4D4D;fillColor=#FFFFFF;" parent="1" vertex="1">
          <mxGeometry x="760" y="312" width="38" height="38" as="geometry" />
        </mxCell>
        <mxCell id="pgvzjLH3voalXGMV9zmU-88" value="" style="ellipse;whiteSpace=wrap;html=1;aspect=fixed;strokeWidth=6;strokeColor=#4D4D4D;fillColor=#FFFFFF;" parent="1" vertex="1">
          <mxGeometry x="760" y="251" width="38" height="38" as="geometry" />
        </mxCell>
        <mxCell id="pgvzjLH3voalXGMV9zmU-89" value="" style="ellipse;whiteSpace=wrap;html=1;aspect=fixed;strokeWidth=6;strokeColor=#4D4D4D;fillColor=#FFFFFF;" parent="1" vertex="1">
          <mxGeometry x="760" y="188" width="38" height="38" as="geometry" />
        </mxCell>
        <mxCell id="pgvzjLH3voalXGMV9zmU-90" value="" style="endArrow=none;html=1;rounded=0;strokeColor=#999999;strokeWidth=15;" parent="1" edge="1">
          <mxGeometry width="50" height="50" relative="1" as="geometry">
            <mxPoint x="320" y="150" as="sourcePoint" />
            <mxPoint x="660" y="140" as="targetPoint" />
            <Array as="points">
              <mxPoint x="320" y="40" />
              <mxPoint x="430" y="40" />
              <mxPoint x="430" y="100" />
              <mxPoint x="480" y="100" />
              <mxPoint x="480" y="30" />
              <mxPoint x="540" y="30" />
              <mxPoint x="540" y="100" />
              <mxPoint x="600" y="100" />
              <mxPoint x="600" y="30" />
              <mxPoint x="660" y="30" />
            </Array>
          </mxGeometry>
        </mxCell>
        <mxCell id="pgvzjLH3voalXGMV9zmU-91" value="" style="endArrow=none;html=1;rounded=0;strokeWidth=15;strokeColor=#999999;" parent="1" edge="1">
          <mxGeometry width="50" height="50" relative="1" as="geometry">
            <mxPoint x="370" y="159" as="sourcePoint" />
            <mxPoint x="370" y="39" as="targetPoint" />
          </mxGeometry>
        </mxCell>
        <mxCell id="u716lGbHVDkh0mk6CN_7-2" value="" style="rounded=1;whiteSpace=wrap;html=1;fillColor=#999999;fontColor=#000000;" parent="1" vertex="1">
          <mxGeometry x="1612.97" y="889.12" width="43.21" height="80.88" as="geometry" />
        </mxCell>
        <mxCell id="u716lGbHVDkh0mk6CN_7-3" value="" style="group" parent="1" vertex="1" connectable="0">
          <mxGeometry x="1487.1399999999999" y="240" width="282.28" height="673.12" as="geometry" />
        </mxCell>
        <mxCell id="u716lGbHVDkh0mk6CN_7-4" value="" style="rounded=0;whiteSpace=wrap;html=1;strokeColor=#FFFFFF;fillColor=#FF3333;fontSize=24;fontColor=#333333;" parent="u716lGbHVDkh0mk6CN_7-3" vertex="1">
          <mxGeometry x="45.056230769230766" width="43.42769230769231" height="108.56774193548388" as="geometry" />
        </mxCell>
        <mxCell id="u716lGbHVDkh0mk6CN_7-5" value="" style="rounded=0;whiteSpace=wrap;html=1;strokeColor=#000000;fillColor=#E6E6E6;fontSize=24;fontColor=#333333;" parent="u716lGbHVDkh0mk6CN_7-3" vertex="1">
          <mxGeometry y="108.56774193548388" width="282.28" height="434.2709677419355" as="geometry" />
        </mxCell>
        <mxCell id="u716lGbHVDkh0mk6CN_7-6" value="&lt;h1&gt;5V DC Motor&lt;/h1&gt;" style="text;html=1;strokeColor=none;fillColor=none;align=center;verticalAlign=middle;whiteSpace=wrap;rounded=0;fontSize=25;fontColor=#000000;rotation=-90;" parent="u716lGbHVDkh0mk6CN_7-3" vertex="1">
          <mxGeometry x="-27.142307692307693" y="249.70580645161294" width="336.5646153846153" height="151.99483870967742" as="geometry" />
        </mxCell>
        <mxCell id="u716lGbHVDkh0mk6CN_7-7" value="" style="rounded=0;whiteSpace=wrap;html=1;strokeColor=#000000;fillColor=#999999;fontSize=24;fontColor=#333333;" parent="u716lGbHVDkh0mk6CN_7-3" vertex="1">
          <mxGeometry y="521.1251612903226" width="282.28" height="151.99483870967742" as="geometry" />
        </mxCell>
        <mxCell id="u716lGbHVDkh0mk6CN_7-8" value="&lt;h1&gt;Pump&lt;/h1&gt;" style="text;html=1;strokeColor=none;fillColor=none;align=center;verticalAlign=middle;whiteSpace=wrap;rounded=0;fontSize=25;fontColor=#000000;rotation=0;" parent="u716lGbHVDkh0mk6CN_7-3" vertex="1">
          <mxGeometry x="45.056230769230766" y="521.1251612903226" width="192.16753846153844" height="151.99483870967742" as="geometry" />
        </mxCell>
        <mxCell id="u716lGbHVDkh0mk6CN_7-9" value="" style="rounded=0;whiteSpace=wrap;html=1;strokeColor=#000000;fillColor=#333333;fontSize=24;" parent="u716lGbHVDkh0mk6CN_7-3" vertex="1">
          <mxGeometry x="193.79607692307692" width="43.42769230769231" height="108.56774193548388" as="geometry" />
        </mxCell>
        <mxCell id="u716lGbHVDkh0mk6CN_7-11" value="" style="endArrow=none;html=1;strokeColor=#00CC00;strokeWidth=5;entryX=1;entryY=0.5;entryDx=0;entryDy=0;exitX=0.5;exitY=1;exitDx=0;exitDy=0;" parent="1" source="TcDIFDmibQCKH7xWG7xC-5" target="pgvzjLH3voalXGMV9zmU-72" edge="1">
          <mxGeometry width="50" height="50" relative="1" as="geometry">
            <mxPoint x="90" y="-60" as="sourcePoint" />
            <mxPoint x="700" y="-552" as="targetPoint" />
            <Array as="points">
              <mxPoint x="90" y="360" />
              <mxPoint x="330" y="360" />
              <mxPoint x="330" y="270" />
            </Array>
          </mxGeometry>
        </mxCell>
        <mxCell id="u716lGbHVDkh0mk6CN_7-12" value="" style="group" parent="1" vertex="1" connectable="0">
          <mxGeometry x="1240" y="250" width="167.14" height="390" as="geometry" />
        </mxCell>
        <mxCell id="u716lGbHVDkh0mk6CN_7-13" value="" style="rounded=1;whiteSpace=wrap;html=1;strokeColor=#000000;fillColor=#E6E6E6;fontSize=18;" parent="u716lGbHVDkh0mk6CN_7-12" vertex="1">
          <mxGeometry x="35" y="167.14" width="32" height="222" as="geometry" />
        </mxCell>
        <mxCell id="u716lGbHVDkh0mk6CN_7-14" value="" style="rounded=1;whiteSpace=wrap;html=1;strokeColor=#000000;fillColor=#E6E6E6;fontSize=18;" parent="u716lGbHVDkh0mk6CN_7-12" vertex="1">
          <mxGeometry x="100" y="167.14" width="32" height="222" as="geometry" />
        </mxCell>
        <mxCell id="u716lGbHVDkh0mk6CN_7-15" value="&lt;h2 style=&quot;font-size: 34px;&quot;&gt;&lt;font style=&quot;font-size: 34px;&quot; color=&quot;#ffffff&quot;&gt;Moisture&lt;/font&gt;&lt;font style=&quot;font-size: 34px;&quot;&gt;&lt;br&gt;&lt;font style=&quot;font-size: 34px;&quot; color=&quot;#ffffff&quot;&gt;&amp;nbsp;Sensor&lt;/font&gt;&lt;/font&gt;&lt;/h2&gt;" style="rounded=0;whiteSpace=wrap;html=1;strokeColor=#E6E6E6;fillColor=#333333;fontSize=24;fontColor=#333333;" parent="u716lGbHVDkh0mk6CN_7-12" vertex="1">
          <mxGeometry x="10" width="150" height="195" as="geometry" />
        </mxCell>
        <mxCell id="u716lGbHVDkh0mk6CN_7-20" value="&lt;h1&gt;Lithium-Ion Battery&lt;br&gt;&lt;/h1&gt;" style="rounded=1;whiteSpace=wrap;html=1;strokeColor=#000000;fillColor=#E6E6E6;fontSize=18;rotation=0;" parent="1" vertex="1">
          <mxGeometry x="171.62" y="920" width="648.38" height="120" as="geometry" />
        </mxCell>
        <mxCell id="u716lGbHVDkh0mk6CN_7-21" value="" style="endArrow=none;html=1;strokeColor=#FF3333;strokeWidth=5;entryX=1;entryY=0.5;entryDx=0;entryDy=0;exitX=1;exitY=0.5;exitDx=0;exitDy=0;" parent="1" source="pgvzjLH3voalXGMV9zmU-82" target="u716lGbHVDkh0mk6CN_7-20" edge="1">
          <mxGeometry width="50" height="50" relative="1" as="geometry">
            <mxPoint x="2265" y="1080" as="sourcePoint" />
            <mxPoint x="1078" y="938" as="targetPoint" />
            <Array as="points">
              <mxPoint x="870" y="640" />
              <mxPoint x="870" y="980" />
            </Array>
          </mxGeometry>
        </mxCell>
        <mxCell id="u716lGbHVDkh0mk6CN_7-22" value="" style="endArrow=none;html=1;strokeColor=#1A1A1A;strokeWidth=5;entryX=0;entryY=0.5;entryDx=0;entryDy=0;exitX=1;exitY=0.5;exitDx=0;exitDy=0;" parent="1" source="u716lGbHVDkh0mk6CN_7-27" target="u716lGbHVDkh0mk6CN_7-20" edge="1">
          <mxGeometry width="50" height="50" relative="1" as="geometry">
            <mxPoint x="-310" y="170" as="sourcePoint" />
            <mxPoint x="830" y="990" as="targetPoint" />
            <Array as="points">
              <mxPoint x="1880" y="-30" />
              <mxPoint x="1880" y="1060" />
              <mxPoint x="120" y="1060" />
              <mxPoint x="120" y="980" />
            </Array>
          </mxGeometry>
        </mxCell>
        <mxCell id="u716lGbHVDkh0mk6CN_7-35" value="&lt;h1 style=&quot;font-size: 23px;&quot;&gt;&lt;font size=&quot;1&quot;&gt;&lt;span style=&quot;font-size: 24px;&quot;&gt;Collector&lt;/span&gt;&lt;/font&gt;&lt;/h1&gt;" style="edgeLabel;html=1;align=center;verticalAlign=middle;resizable=0;points=[];fontStyle=0;fontSize=28;" parent="u716lGbHVDkh0mk6CN_7-22" vertex="1" connectable="0">
          <mxGeometry x="-0.8582" y="3" relative="1" as="geometry">
            <mxPoint x="-103" y="-21" as="offset" />
          </mxGeometry>
        </mxCell>
        <mxCell id="u716lGbHVDkh0mk6CN_7-24" value="" style="endArrow=none;html=1;strokeColor=#66B2FF;strokeWidth=5;exitX=0;exitY=0;exitDx=0;exitDy=0;" parent="1" source="pgvzjLH3voalXGMV9zmU-69" edge="1">
          <mxGeometry width="50" height="50" relative="1" as="geometry">
            <mxPoint x="-390" y="503" as="sourcePoint" />
            <mxPoint x="-200" y="1040" as="targetPoint" />
            <Array as="points">
              <mxPoint x="250" y="430" />
              <mxPoint x="90" y="430" />
              <mxPoint x="90" y="720" />
              <mxPoint x="-200" y="720" />
            </Array>
          </mxGeometry>
        </mxCell>
        <mxCell id="u716lGbHVDkh0mk6CN_7-25" value="100%" style="edgeLabel;html=1;align=center;verticalAlign=middle;resizable=0;points=[];fontSize=32;fontStyle=1" parent="u716lGbHVDkh0mk6CN_7-24" vertex="1" connectable="0">
          <mxGeometry x="0.7837" y="1" relative="1" as="geometry">
            <mxPoint y="64" as="offset" />
          </mxGeometry>
        </mxCell>
        <mxCell id="u716lGbHVDkh0mk6CN_7-26" value="" style="endArrow=none;html=1;strokeColor=#333333;strokeWidth=5;exitX=1;exitY=0.5;exitDx=0;exitDy=0;entryX=0.5;entryY=0;entryDx=0;entryDy=0;" parent="1" source="Ae9W0-AIVdHXNHfP5-Jw-4" target="u716lGbHVDkh0mk6CN_7-44" edge="1">
          <mxGeometry width="50" height="50" relative="1" as="geometry">
            <mxPoint x="808" y="651" as="sourcePoint" />
            <mxPoint x="840" y="1120" as="targetPoint" />
            <Array as="points">
              <mxPoint x="900" y="580" />
              <mxPoint x="900" y="1060" />
            </Array>
          </mxGeometry>
        </mxCell>
        <mxCell id="u716lGbHVDkh0mk6CN_7-27" value="&lt;h1&gt;&lt;br&gt;&lt;/h1&gt;" style="whiteSpace=wrap;html=1;aspect=fixed;fillColor=#E6E6E6;" parent="1" vertex="1">
          <mxGeometry x="1594.58" y="-70" width="80" height="80" as="geometry" />
        </mxCell>
        <mxCell id="u716lGbHVDkh0mk6CN_7-28" value="" style="ellipse;whiteSpace=wrap;html=1;aspect=fixed;" parent="1" vertex="1">
          <mxGeometry x="1614.58" y="-60" width="40" height="40" as="geometry" />
        </mxCell>
        <mxCell id="u716lGbHVDkh0mk6CN_7-29" value="&lt;h1&gt;&lt;font color=&quot;#ffffff&quot;&gt;NPN&lt;/font&gt;&lt;/h1&gt;" style="whiteSpace=wrap;html=1;aspect=fixed;fillColor=#1A1A1A;" parent="1" vertex="1">
          <mxGeometry x="1594.58" width="80" height="80" as="geometry" />
        </mxCell>
        <mxCell id="u716lGbHVDkh0mk6CN_7-30" value="" style="rounded=0;whiteSpace=wrap;html=1;" parent="1" vertex="1">
          <mxGeometry x="1604.58" y="80" width="10" height="70" as="geometry" />
        </mxCell>
        <mxCell id="u716lGbHVDkh0mk6CN_7-31" value="" style="rounded=0;whiteSpace=wrap;html=1;" parent="1" vertex="1">
          <mxGeometry x="1629.58" y="80" width="10" height="70" as="geometry" />
        </mxCell>
        <mxCell id="u716lGbHVDkh0mk6CN_7-32" value="" style="rounded=0;whiteSpace=wrap;html=1;" parent="1" vertex="1">
          <mxGeometry x="1654.58" y="80" width="10" height="70" as="geometry" />
        </mxCell>
        <mxCell id="u716lGbHVDkh0mk6CN_7-33" value="" style="endArrow=none;html=1;strokeColor=#333333;strokeWidth=5;exitX=0.5;exitY=1;exitDx=0;exitDy=0;entryX=1;entryY=0.75;entryDx=0;entryDy=0;" parent="1" source="u716lGbHVDkh0mk6CN_7-32" target="u716lGbHVDkh0mk6CN_7-9" edge="1">
          <mxGeometry width="50" height="50" relative="1" as="geometry">
            <mxPoint x="2445.79" y="398" as="sourcePoint" />
            <mxPoint x="2025.79" y="178" as="targetPoint" />
            <Array as="points">
              <mxPoint x="1800" y="150" />
              <mxPoint x="1800" y="321" />
            </Array>
          </mxGeometry>
        </mxCell>
        <mxCell id="u716lGbHVDkh0mk6CN_7-34" value="&lt;h1 style=&quot;font-size: 23px;&quot;&gt;&lt;font size=&quot;1&quot;&gt;&lt;span style=&quot;font-size: 24px;&quot;&gt;Emitter&lt;/span&gt;&lt;/font&gt;&lt;/h1&gt;" style="edgeLabel;html=1;align=center;verticalAlign=middle;resizable=0;points=[];fontStyle=1" parent="u716lGbHVDkh0mk6CN_7-33" vertex="1" connectable="0">
          <mxGeometry x="0.2122" y="5" relative="1" as="geometry">
            <mxPoint x="2" y="-5" as="offset" />
          </mxGeometry>
        </mxCell>
        <mxCell id="u716lGbHVDkh0mk6CN_7-38" value="" style="endArrow=none;html=1;strokeColor=#FF3333;strokeWidth=5;entryX=1;entryY=0.5;entryDx=0;entryDy=0;exitX=0;exitY=0.25;exitDx=0;exitDy=0;" parent="1" source="u716lGbHVDkh0mk6CN_7-4" target="u716lGbHVDkh0mk6CN_7-20" edge="1">
          <mxGeometry width="50" height="50" relative="1" as="geometry">
            <mxPoint x="808" y="651" as="sourcePoint" />
            <mxPoint x="830" y="990" as="targetPoint" />
            <Array as="points">
              <mxPoint x="1440" y="267" />
              <mxPoint x="1440" y="980" />
            </Array>
          </mxGeometry>
        </mxCell>
        <mxCell id="u716lGbHVDkh0mk6CN_7-39" value="" style="ellipse;whiteSpace=wrap;html=1;aspect=fixed;strokeWidth=6;strokeColor=none;fillColor=#FF3333;" parent="1" vertex="1">
          <mxGeometry x="857" y="967" width="25.12" height="25.12" as="geometry" />
        </mxCell>
        <mxCell id="u716lGbHVDkh0mk6CN_7-44" value="" style="ellipse;whiteSpace=wrap;html=1;aspect=fixed;strokeWidth=6;strokeColor=none;fillColor=#333333;" parent="1" vertex="1">
          <mxGeometry x="887" y="1045" width="25.12" height="25.12" as="geometry" />
        </mxCell>
        <mxCell id="u716lGbHVDkh0mk6CN_7-48" value="" style="endArrow=none;html=1;strokeColor=#66B2FF;strokeWidth=5;exitX=0;exitY=0;exitDx=0;exitDy=0;" parent="1" source="pgvzjLH3voalXGMV9zmU-68" edge="1">
          <mxGeometry width="50" height="50" relative="1" as="geometry">
            <mxPoint x="278" y="454" as="sourcePoint" />
            <mxPoint x="-140" y="1040" as="targetPoint" />
            <Array as="points">
              <mxPoint x="250" y="490" />
              <mxPoint x="110" y="490" />
              <mxPoint x="110" y="740" />
              <mxPoint x="-140" y="740" />
            </Array>
          </mxGeometry>
        </mxCell>
        <mxCell id="u716lGbHVDkh0mk6CN_7-49" value="75%" style="edgeLabel;html=1;align=center;verticalAlign=middle;resizable=0;points=[];fontSize=32;fontStyle=1" parent="u716lGbHVDkh0mk6CN_7-48" vertex="1" connectable="0">
          <mxGeometry x="0.7837" y="1" relative="1" as="geometry">
            <mxPoint as="offset" />
          </mxGeometry>
        </mxCell>
        <mxCell id="u716lGbHVDkh0mk6CN_7-50" value="" style="endArrow=none;html=1;strokeColor=#66B2FF;strokeWidth=5;exitX=0;exitY=0;exitDx=0;exitDy=0;" parent="1" source="pgvzjLH3voalXGMV9zmU-67" edge="1">
          <mxGeometry width="50" height="50" relative="1" as="geometry">
            <mxPoint x="328" y="520" as="sourcePoint" />
            <mxPoint x="-80" y="1040" as="targetPoint" />
            <Array as="points">
              <mxPoint x="250" y="550" />
              <mxPoint x="130" y="550" />
              <mxPoint x="130" y="760" />
              <mxPoint x="-80" y="760" />
            </Array>
          </mxGeometry>
        </mxCell>
        <mxCell id="u716lGbHVDkh0mk6CN_7-51" value="50%" style="edgeLabel;html=1;align=center;verticalAlign=middle;resizable=0;points=[];fontSize=32;fontStyle=1" parent="u716lGbHVDkh0mk6CN_7-50" vertex="1" connectable="0">
          <mxGeometry x="0.7837" y="1" relative="1" as="geometry">
            <mxPoint y="-60" as="offset" />
          </mxGeometry>
        </mxCell>
        <mxCell id="u716lGbHVDkh0mk6CN_7-52" value="" style="endArrow=none;html=1;strokeColor=#66B2FF;strokeWidth=5;exitX=0;exitY=0;exitDx=0;exitDy=0;" parent="1" source="pgvzjLH3voalXGMV9zmU-66" edge="1">
          <mxGeometry width="50" height="50" relative="1" as="geometry">
            <mxPoint x="328" y="586" as="sourcePoint" />
            <mxPoint x="-20" y="1040" as="targetPoint" />
            <Array as="points">
              <mxPoint x="250" y="610" />
              <mxPoint x="150" y="610" />
              <mxPoint x="150" y="780" />
              <mxPoint x="-20" y="780" />
            </Array>
          </mxGeometry>
        </mxCell>
        <mxCell id="u716lGbHVDkh0mk6CN_7-53" value="25%" style="edgeLabel;html=1;align=center;verticalAlign=middle;resizable=0;points=[];fontSize=32;fontStyle=1" parent="u716lGbHVDkh0mk6CN_7-52" vertex="1" connectable="0">
          <mxGeometry x="0.7837" y="1" relative="1" as="geometry">
            <mxPoint y="-132" as="offset" />
          </mxGeometry>
        </mxCell>
        <mxCell id="u716lGbHVDkh0mk6CN_7-54" value="&lt;h1 style=&quot;font-size: 25px;&quot;&gt;&lt;font style=&quot;font-size: 32px;&quot;&gt;Water Level Sensor&lt;/font&gt;&lt;/h1&gt;" style="text;html=1;strokeColor=none;fillColor=none;align=center;verticalAlign=middle;whiteSpace=wrap;rounded=0;" parent="1" vertex="1">
          <mxGeometry x="-270" y="1045" width="300" height="30" as="geometry" />
        </mxCell>
        <mxCell id="u716lGbHVDkh0mk6CN_7-55" value="" style="endArrow=none;html=1;strokeColor=#00CC00;strokeWidth=5;exitX=0.064;exitY=-0.159;exitDx=0;exitDy=0;exitPerimeter=0;entryX=0;entryY=0.5;entryDx=0;entryDy=0;" parent="1" source="u716lGbHVDkh0mk6CN_7-54" edge="1" target="TcDIFDmibQCKH7xWG7xC-5">
          <mxGeometry width="50" height="50" relative="1" as="geometry">
            <mxPoint x="-250" y="1020" as="sourcePoint" />
            <mxPoint x="930" y="-100" as="targetPoint" />
            <Array as="points">
              <mxPoint x="-250" y="-57" />
            </Array>
          </mxGeometry>
        </mxCell>
        <mxCell id="u716lGbHVDkh0mk6CN_7-56" value="" style="ellipse;whiteSpace=wrap;html=1;aspect=fixed;strokeWidth=6;strokeColor=none;fillColor=#00CC00;" parent="1" vertex="1">
          <mxGeometry x="868" y="85" width="25.12" height="25.12" as="geometry" />
        </mxCell>
        <mxCell id="u716lGbHVDkh0mk6CN_7-18" value="" style="endArrow=none;html=1;strokeColor=#FF6666;strokeWidth=5;exitX=0;exitY=0.5;exitDx=0;exitDy=0;entryX=0;entryY=0.5;entryDx=0;entryDy=0;" parent="1" source="pgvzjLH3voalXGMV9zmU-60" target="u716lGbHVDkh0mk6CN_7-60" edge="1">
          <mxGeometry width="50" height="50" relative="1" as="geometry">
            <mxPoint x="1085" y="247" as="sourcePoint" />
            <mxPoint x="1390" y="-180" as="targetPoint" />
            <Array as="points">
              <mxPoint x="120" y="330" />
              <mxPoint x="120" y="-30" />
            </Array>
          </mxGeometry>
        </mxCell>
        <mxCell id="u716lGbHVDkh0mk6CN_7-17" value="" style="endArrow=none;html=1;strokeColor=#FF6666;strokeWidth=5;entryX=0;entryY=0;entryDx=0;entryDy=0;exitX=0;exitY=0.5;exitDx=0;exitDy=0;" parent="1" source="Ae9W0-AIVdHXNHfP5-Jw-9" target="pgvzjLH3voalXGMV9zmU-71" edge="1">
          <mxGeometry width="50" height="50" relative="1" as="geometry">
            <mxPoint x="1000" y="10" as="sourcePoint" />
            <mxPoint x="730" y="-129" as="targetPoint" />
            <Array as="points">
              <mxPoint x="150" y="10" />
              <mxPoint x="150" y="300" />
              <mxPoint x="240" y="300" />
            </Array>
          </mxGeometry>
        </mxCell>
        <mxCell id="u716lGbHVDkh0mk6CN_7-58" value="" style="endArrow=none;html=1;strokeColor=#FF6666;strokeWidth=5;entryX=0.5;entryY=1;entryDx=0;entryDy=0;exitX=1;exitY=0.5;exitDx=0;exitDy=0;" parent="1" source="u716lGbHVDkh0mk6CN_7-60" target="u716lGbHVDkh0mk6CN_7-30" edge="1">
          <mxGeometry width="50" height="50" relative="1" as="geometry">
            <mxPoint x="1740" y="-40" as="sourcePoint" />
            <mxPoint x="2030" y="-240" as="targetPoint" />
            <Array as="points">
              <mxPoint x="1560" y="-30" />
              <mxPoint x="1560" y="150" />
            </Array>
          </mxGeometry>
        </mxCell>
        <mxCell id="u716lGbHVDkh0mk6CN_7-59" value="&lt;h1 style=&quot;font-size: 24px;&quot;&gt;&lt;span style=&quot;font-size: 24px;&quot;&gt;&lt;span style=&quot;font-size: 24px;&quot;&gt;Base&lt;/span&gt;&lt;/span&gt;&lt;/h1&gt;" style="edgeLabel;html=1;align=center;verticalAlign=middle;resizable=0;points=[];fontSize=24;fontStyle=1" parent="u716lGbHVDkh0mk6CN_7-58" vertex="1" connectable="0">
          <mxGeometry x="0.6728" y="6" relative="1" as="geometry">
            <mxPoint x="-106" y="-131" as="offset" />
          </mxGeometry>
        </mxCell>
        <mxCell id="u716lGbHVDkh0mk6CN_7-60" value="&lt;h1&gt;1K&lt;/h1&gt;" style="rounded=0;whiteSpace=wrap;html=1;rotation=0;strokeWidth=2;" parent="1" vertex="1">
          <mxGeometry x="1080" y="-46" width="110" height="32" as="geometry" />
        </mxCell>
        <mxCell id="Ae9W0-AIVdHXNHfP5-Jw-2" value="" style="endArrow=none;html=1;strokeColor=#333333;strokeWidth=5;exitX=0;exitY=0.5;exitDx=0;exitDy=0;" parent="1" source="Ae9W0-AIVdHXNHfP5-Jw-4" edge="1">
          <mxGeometry width="50" height="50" relative="1" as="geometry">
            <mxPoint x="808" y="589" as="sourcePoint" />
            <mxPoint x="880" y="580" as="targetPoint" />
            <Array as="points" />
          </mxGeometry>
        </mxCell>
        <mxCell id="Ae9W0-AIVdHXNHfP5-Jw-5" value="" style="endArrow=none;html=1;strokeColor=#333333;strokeWidth=5;exitX=1;exitY=0.5;exitDx=0;exitDy=0;" parent="1" source="pgvzjLH3voalXGMV9zmU-83" target="Ae9W0-AIVdHXNHfP5-Jw-4" edge="1">
          <mxGeometry width="50" height="50" relative="1" as="geometry">
            <mxPoint x="798" y="579" as="sourcePoint" />
            <mxPoint x="900" y="1045" as="targetPoint" />
            <Array as="points" />
          </mxGeometry>
        </mxCell>
        <mxCell id="Ae9W0-AIVdHXNHfP5-Jw-6" value="" style="endArrow=none;html=1;strokeColor=#333333;strokeWidth=5;exitX=0;exitY=0.5;exitDx=0;exitDy=0;" parent="1" source="Ae9W0-AIVdHXNHfP5-Jw-1" target="Ae9W0-AIVdHXNHfP5-Jw-4" edge="1">
          <mxGeometry width="50" height="50" relative="1" as="geometry">
            <mxPoint x="881" y="441" as="sourcePoint" />
            <mxPoint x="880" y="580" as="targetPoint" />
            <Array as="points" />
          </mxGeometry>
        </mxCell>
        <mxCell id="Ae9W0-AIVdHXNHfP5-Jw-4" value="" style="ellipse;whiteSpace=wrap;html=1;aspect=fixed;strokeWidth=6;strokeColor=none;fillColor=#1A1A1A;" parent="1" vertex="1">
          <mxGeometry x="868" y="566.4399999999999" width="25.12" height="25.12" as="geometry" />
        </mxCell>
        <mxCell id="Ae9W0-AIVdHXNHfP5-Jw-9" value="&lt;b&gt;&lt;font style=&quot;font-size: 24px;&quot;&gt;200R&lt;/font&gt;&lt;/b&gt;" style="rounded=0;whiteSpace=wrap;html=1;rotation=0;strokeWidth=2;" parent="1" vertex="1">
          <mxGeometry x="1080" y="-10" width="110" height="32" as="geometry" />
        </mxCell>
        <mxCell id="Ae9W0-AIVdHXNHfP5-Jw-11" value="" style="endArrow=none;html=1;strokeColor=#FF6666;strokeWidth=5;exitX=1;exitY=0.5;exitDx=0;exitDy=0;entryX=0.75;entryY=0;entryDx=0;entryDy=0;" parent="1" source="Ae9W0-AIVdHXNHfP5-Jw-9" target="u716lGbHVDkh0mk6CN_7-15" edge="1">
          <mxGeometry width="50" height="50" relative="1" as="geometry">
            <mxPoint x="1050" y="60" as="sourcePoint" />
            <mxPoint x="1340" y="120" as="targetPoint" />
            <Array as="points">
              <mxPoint x="1363" y="6" />
            </Array>
          </mxGeometry>
        </mxCell>
        <mxCell id="TcDIFDmibQCKH7xWG7xC-4" value="" style="endArrow=none;html=1;strokeColor=#00CC00;strokeWidth=5;exitX=0.25;exitY=0;exitDx=0;exitDy=0;" edge="1" parent="1" source="u716lGbHVDkh0mk6CN_7-15">
          <mxGeometry width="50" height="50" relative="1" as="geometry">
            <mxPoint x="1288" y="250" as="sourcePoint" />
            <mxPoint x="880" y="340" as="targetPoint" />
            <Array as="points">
              <mxPoint x="1288" y="100" />
              <mxPoint x="880" y="100" />
            </Array>
          </mxGeometry>
        </mxCell>
        <mxCell id="TcDIFDmibQCKH7xWG7xC-5" value="" style="ellipse;whiteSpace=wrap;html=1;aspect=fixed;strokeWidth=6;strokeColor=none;fillColor=#00CC00;" vertex="1" parent="1">
          <mxGeometry x="80" y="-70" width="25.12" height="25.12" as="geometry" />
        </mxCell>
        <mxCell id="Ae9W0-AIVdHXNHfP5-Jw-1" value="&lt;h1&gt;10K&lt;/h1&gt;" style="rounded=0;whiteSpace=wrap;html=1;rotation=-90;strokeWidth=2;" parent="1" vertex="1">
          <mxGeometry x="825.56" y="370" width="110" height="32" as="geometry" />
        </mxCell>
      </root>
    </mxGraphModel>
  </diagram>
</mxfile>
